<svg width="2572" height="1054" xmlns="http://www.w3.org/2000/svg" xmlns:xlink="http://www.w3.org/1999/xlink" xml:space="preserve" overflow="hidden"><g transform="translate(-783 -358)"><path d="M2262.5 1237.5C2262.5 1189.45 2301.45 1150.5 2349.5 1150.5 2397.55 1150.5 2436.5 1189.45 2436.5 1237.5 2436.5 1285.55 2397.55 1324.5 2349.5 1324.5 2301.45 1324.5 2262.5 1285.55 2262.5 1237.5Z" stroke="#000000" stroke-width="0" stroke-linejoin="round" stroke-miterlimit="10" fill="#FFFFFF" fill-rule="evenodd"/><path d="M2262.5 1237.5C2262.5 1189.45 2301.45 1150.5 2349.5 1150.5 2397.55 1150.5 2436.5 1189.45 2436.5 1237.5 2436.5 1285.55 2397.55 1324.5 2349.5 1324.5 2301.45 1324.5 2262.5 1285.55 2262.5 1237.5Z" stroke="#000000" stroke-width="4.58333" stroke-linecap="square" stroke-miterlimit="8" fill="none" fill-rule="evenodd"/><path d="M2433.5 1217.5 2288.5 1176.5" stroke="#000000" stroke-width="4.58333" stroke-miterlimit="8" fill="none" fill-rule="evenodd"/><path d="M0 0 145 40.9999" stroke="#000000" stroke-width="4.58333" stroke-miterlimit="8" fill="none" fill-rule="evenodd" transform="matrix(-1 0 0 1 2433.5 1258.5)"/><path d="M1303.5 1084.89 1303.5 1236.5 1774.25 1236.5 1774.25 998.5 1953.5 998.5" stroke="#00B050" stroke-width="4.58333" stroke-linecap="round" stroke-linejoin="round" stroke-miterlimit="10" fill="none" fill-rule="evenodd"/><path d="M1666 783 1715 758 1666 733 1666 783Z" fill="#FFFFFF" fill-rule="evenodd"/><path d="M1666.5 783.5 1715.5 758.5 1666.5 733.5 1666.5 783.5Z" stroke="#000000" stroke-width="4.58333" stroke-linecap="square" stroke-miterlimit="8" fill="none" fill-rule="evenodd"/><path d="M1765 733 1715 758 1765 783 1765 733Z" fill="#FFFFFF" fill-rule="evenodd"/><path d="M1765.5 733.5 1715.5 758.5 1765.5 783.5 1765.5 733.5Z" stroke="#000000" stroke-width="4.58333" stroke-linecap="square" stroke-miterlimit="8" fill="none" fill-rule="evenodd"/><path d="M2347.5 800.5 2347.5 998.5 2077.5 998.5" stroke="#00B050" stroke-width="4.58333" stroke-linecap="round" stroke-linejoin="round" stroke-miterlimit="10" fill="none" fill-rule="evenodd"/><path d="M1666.5 758.5 1303.5 758.5 1303.5 880.5" stroke="#00B050" stroke-width="4.58333" stroke-linecap="round" stroke-linejoin="round" stroke-miterlimit="10" fill="none" fill-rule="evenodd"/><path d="M2770.5 1085.5 2770.5 1237.5 2436.5 1237.5" stroke="#00B050" stroke-width="4.58333" stroke-linecap="round" stroke-linejoin="round" stroke-miterlimit="10" fill="none" fill-rule="evenodd"/><path d="M2260.5 587.416 2260.5 713.584C2260.5 761.463 2299.14 800.5 2347 800.5 2394.65 800.5 2433.5 761.463 2433.5 713.584L2433.5 587.416C2433.5 539.321 2394.65 500.5 2347 500.5 2299.14 500.5 2260.5 539.321 2260.5 587.416Z" stroke="#000000" stroke-width="0" stroke-linejoin="round" stroke-miterlimit="10" fill="#FFFFFF" fill-rule="evenodd"/><path d="M2260.5 587.416 2260.5 713.584C2260.5 761.463 2299.14 800.5 2347 800.5 2394.65 800.5 2433.5 761.463 2433.5 713.584L2433.5 587.416C2433.5 539.321 2394.65 500.5 2347 500.5 2299.14 500.5 2260.5 539.321 2260.5 587.416Z" stroke="#000000" stroke-width="4.58333" stroke-linecap="square" stroke-miterlimit="8" fill="none" fill-rule="evenodd"/><path d="M0 0 173 0.000360892" stroke="#000000" stroke-width="4.58333" stroke-linecap="round" stroke-linejoin="round" stroke-miterlimit="10" fill="none" fill-rule="evenodd" transform="matrix(-1 0 0 1 2433.5 594.5)"/><path d="M0 0 23 0.000360892" stroke="#000000" stroke-width="4.58333" stroke-linecap="round" stroke-linejoin="round" stroke-miterlimit="10" fill="none" fill-rule="evenodd" transform="matrix(-1 0 0 1 2404.5 604.5)"/><path d="M2770.5 881.5 2770.5 422.5 2347.5 422.5 2347.5 500.53" stroke="#00B050" stroke-width="4.58333" stroke-linecap="round" stroke-linejoin="round" stroke-miterlimit="10" fill="none" fill-rule="evenodd"/><path d="M0 0 12.9997 0.000360892" stroke="#000000" stroke-width="4.58333" stroke-linecap="round" stroke-linejoin="round" stroke-miterlimit="10" fill="none" fill-rule="evenodd" transform="matrix(-1 0 0 1 2399.5 611.5)"/><path d="M0 0 7.00023 0.000360892" stroke="#000000" stroke-width="4.58333" stroke-linecap="round" stroke-linejoin="round" stroke-miterlimit="10" fill="none" fill-rule="evenodd" transform="matrix(-1 0 0 1 2395.5 620.5)"/><path d="M2015.5 944.5 2015.5 758.5 1765.5 758.5" stroke="#00B050" stroke-width="4.58333" stroke-linecap="round" stroke-linejoin="round" stroke-miterlimit="10" fill="none" fill-rule="evenodd"/><rect x="1953" y="944" width="124" height="108" fill="#FFFFFF"/><rect x="1953.5" y="944.5" width="124" height="108" stroke="#000000" stroke-width="3.4375" stroke-linecap="square" stroke-miterlimit="8" fill="none"/><path d="M1953.5 944.5 2077.5 1052.5" stroke="#000000" stroke-width="4.58333" stroke-linecap="round" stroke-linejoin="round" stroke-miterlimit="10" fill="none" fill-rule="evenodd"/><path d="M2015.5 1052.5 2015.5 1237.5 2262.5 1237.5" stroke="#00B050" stroke-width="4.58333" stroke-linecap="round" stroke-linejoin="round" stroke-miterlimit="10" fill="none" fill-rule="evenodd"/><path d="M1730 784 1715.5 757 1701 784 1730 784Z" fill-rule="evenodd"/><path d="M1730.5 784.5 1716 757.5 1701.5 784.5 1730.5 784.5Z" stroke="#000000" stroke-width="4.58333" stroke-linecap="square" stroke-miterlimit="8" fill="none" fill-rule="evenodd"/><path d="M1201.5 983C1201.5 926.391 1247.17 880.5 1303.5 880.5 1359.83 880.5 1405.5 926.391 1405.5 983 1405.5 1039.61 1359.83 1085.5 1303.5 1085.5 1247.17 1085.5 1201.5 1039.61 1201.5 983Z" stroke="#000000" stroke-width="4.58333" stroke-linecap="square" stroke-miterlimit="8" fill="none" fill-rule="evenodd"/><path d="M1009.5 1030.5 1344.5 1031.5" stroke="#0070C0" stroke-width="4.58333" stroke-linecap="round" stroke-linejoin="round" stroke-miterlimit="10" fill="none" fill-rule="evenodd"/><path d="M0 0 68.9997 54" stroke="#0070C0" stroke-width="4.58333" stroke-linecap="round" stroke-linejoin="round" stroke-miterlimit="10" fill="none" fill-rule="evenodd" transform="matrix(1 0 0 -1 1275.5 984.5)"/><path d="M1275.5 984.5 1344.5 1030.5" stroke="#0070C0" stroke-width="4.58333" stroke-linecap="round" stroke-linejoin="round" stroke-miterlimit="10" fill="none" fill-rule="evenodd"/><path d="M2668.5 983.5C2668.5 927.167 2714.39 881.5 2771 881.5 2827.61 881.5 2873.5 927.167 2873.5 983.5 2873.5 1039.83 2827.61 1085.5 2771 1085.5 2714.39 1085.5 2668.5 1039.83 2668.5 983.5Z" stroke="#000000" stroke-width="4.58333" stroke-linecap="square" stroke-miterlimit="8" fill="none" fill-rule="evenodd"/><path d="M3054.5 1036.5 2729.5 1035.5" stroke="#FF0000" stroke-width="4.58333" stroke-linecap="round" stroke-linejoin="round" stroke-miterlimit="10" fill="none" fill-rule="evenodd"/><path d="M0 0 325 1.9997" stroke="#FF0000" stroke-width="4.58333" stroke-linecap="round" stroke-linejoin="round" stroke-miterlimit="10" fill="none" fill-rule="evenodd" transform="matrix(-1 0 0 1 3054.5 933.5)"/><path d="M0 0 70.0001 54" stroke="#FF0000" stroke-width="4.58333" stroke-linecap="round" stroke-linejoin="round" stroke-miterlimit="10" fill="none" fill-rule="evenodd" transform="matrix(-1 0 0 1 2799.5 981.5)"/><path d="M2799.5 981.5 2729.5 935.5" stroke="#FF0000" stroke-width="4.58333" stroke-linecap="round" stroke-linejoin="round" stroke-miterlimit="10" fill="none" fill-rule="evenodd"/><path d="M1986.5 1237.5C1986.5 1221.48 1999.48 1208.5 2015.5 1208.5 2031.52 1208.5 2044.5 1221.48 2044.5 1237.5 2044.5 1253.52 2031.52 1266.5 2015.5 1266.5 1999.48 1266.5 1986.5 1253.52 1986.5 1237.5Z" stroke="#000000" stroke-width="0" stroke-linejoin="round" stroke-miterlimit="10" fill="#FFFFFF" fill-rule="evenodd"/><path d="M1986.5 1237.5C1986.5 1221.48 1999.48 1208.5 2015.5 1208.5 2031.52 1208.5 2044.5 1221.48 2044.5 1237.5 2044.5 1253.52 2031.52 1266.5 2015.5 1266.5 1999.48 1266.5 1986.5 1253.52 1986.5 1237.5Z" stroke="#000000" stroke-width="3.4375" stroke-linecap="square" stroke-miterlimit="8" fill="none" fill-rule="evenodd"/><text font-family="Times New Roman,Times New Roman_MSFontService,sans-serif" font-weight="400" font-size="46" transform="matrix(1 0 0 1 2003.49 1252)">1</text><path d="M2744.5 1237.5C2744.5 1221.48 2757.26 1208.5 2773 1208.5 2788.74 1208.5 2801.5 1221.48 2801.5 1237.5 2801.5 1253.52 2788.74 1266.5 2773 1266.5 2757.26 1266.5 2744.5 1253.52 2744.5 1237.5Z" stroke="#000000" stroke-width="0" stroke-linejoin="round" stroke-miterlimit="10" fill="#FFFFFF" fill-rule="evenodd"/><path d="M2744.5 1237.5C2744.5 1221.48 2757.26 1208.5 2773 1208.5 2788.74 1208.5 2801.5 1221.48 2801.5 1237.5 2801.5 1253.52 2788.74 1266.5 2773 1266.5 2757.26 1266.5 2744.5 1253.52 2744.5 1237.5Z" stroke="#000000" stroke-width="3.4375" stroke-linecap="square" stroke-miterlimit="8" fill="none" fill-rule="evenodd"/><text font-family="Times New Roman,Times New Roman_MSFontService,sans-serif" font-weight="400" font-size="46" transform="matrix(1 0 0 1 2760.89 1252)">2</text><path d="M2741.5 422.5C2741.5 406.484 2754.48 393.5 2770.5 393.5 2786.52 393.5 2799.5 406.484 2799.5 422.5 2799.5 438.516 2786.52 451.5 2770.5 451.5 2754.48 451.5 2741.5 438.516 2741.5 422.5Z" stroke="#000000" stroke-width="0" stroke-linejoin="round" stroke-miterlimit="10" fill="#FFFFFF" fill-rule="evenodd"/><path d="M2741.5 422.5C2741.5 406.484 2754.48 393.5 2770.5 393.5 2786.52 393.5 2799.5 406.484 2799.5 422.5 2799.5 438.516 2786.52 451.5 2770.5 451.5 2754.48 451.5 2741.5 438.516 2741.5 422.5Z" stroke="#000000" stroke-width="3.4375" stroke-linecap="square" stroke-miterlimit="8" fill="none" fill-rule="evenodd"/><text font-family="Times New Roman,Times New Roman_MSFontService,sans-serif" font-weight="400" font-size="46" transform="matrix(1 0 0 1 2760.31 437)">3</text><path d="M2313.5 998.5C2313.5 982.484 2326.48 969.5 2342.5 969.5 2358.52 969.5 2371.5 982.484 2371.5 998.5 2371.5 1014.52 2358.52 1027.5 2342.5 1027.5 2326.48 1027.5 2313.5 1014.52 2313.5 998.5Z" stroke="#000000" stroke-width="0" stroke-linejoin="round" stroke-miterlimit="10" fill="#FFFFFF" fill-rule="evenodd"/><path d="M2313.5 998.5C2313.5 982.484 2326.48 969.5 2342.5 969.5 2358.52 969.5 2371.5 982.484 2371.5 998.5 2371.5 1014.52 2358.52 1027.5 2342.5 1027.5 2326.48 1027.5 2313.5 1014.52 2313.5 998.5Z" stroke="#000000" stroke-width="3.4375" stroke-linecap="square" stroke-miterlimit="8" fill="none" fill-rule="evenodd"/><text font-family="Times New Roman,Times New Roman_MSFontService,sans-serif" font-weight="400" font-size="46" transform="matrix(1 0 0 1 2328.91 1011)">4</text><path d="M1983.5 762.5C1983.5 746.484 1996.48 733.5 2012.5 733.5 2028.52 733.5 2041.5 746.484 2041.5 762.5 2041.5 778.516 2028.52 791.5 2012.5 791.5 1996.48 791.5 1983.5 778.516 1983.5 762.5Z" stroke="#000000" stroke-width="0" stroke-linejoin="round" stroke-miterlimit="10" fill="#FFFFFF" fill-rule="evenodd"/><path d="M1983.5 762.5C1983.5 746.484 1996.48 733.5 2012.5 733.5 2028.52 733.5 2041.5 746.484 2041.5 762.5 2041.5 778.516 2028.52 791.5 2012.5 791.5 1996.48 791.5 1983.5 778.516 1983.5 762.5Z" stroke="#000000" stroke-width="3.4375" stroke-linecap="square" stroke-miterlimit="8" fill="none" fill-rule="evenodd"/><text font-family="Times New Roman,Times New Roman_MSFontService,sans-serif" font-weight="400" font-size="46" transform="matrix(1 0 0 1 1998.91 776)">5</text><path d="M1276.5 760.5C1276.5 744.484 1289.48 731.5 1305.5 731.5 1321.52 731.5 1334.5 744.484 1334.5 760.5 1334.5 776.516 1321.52 789.5 1305.5 789.5 1289.48 789.5 1276.5 776.516 1276.5 760.5Z" stroke="#000000" stroke-width="0" stroke-linejoin="round" stroke-miterlimit="10" fill="#FFFFFF" fill-rule="evenodd"/><path d="M1276.5 760.5C1276.5 744.484 1289.48 731.5 1305.5 731.5 1321.52 731.5 1334.5 744.484 1334.5 760.5 1334.5 776.516 1321.52 789.5 1305.5 789.5 1289.48 789.5 1276.5 776.516 1276.5 760.5Z" stroke="#000000" stroke-width="3.4375" stroke-linecap="square" stroke-miterlimit="8" fill="none" fill-rule="evenodd"/><text font-family="Times New Roman,Times New Roman_MSFontService,sans-serif" font-weight="400" font-size="46" transform="matrix(1 0 0 1 1291.35 774)">6</text><path d="M1274.5 1237.5C1274.5 1221.48 1287.26 1208.5 1303 1208.5 1318.74 1208.5 1331.5 1221.48 1331.5 1237.5 1331.5 1253.52 1318.74 1266.5 1303 1266.5 1287.26 1266.5 1274.5 1253.52 1274.5 1237.5Z" stroke="#000000" stroke-width="0" stroke-linejoin="round" stroke-miterlimit="10" fill="#FFFFFF" fill-rule="evenodd"/><path d="M1274.5 1237.5C1274.5 1221.48 1287.26 1208.5 1303 1208.5 1318.74 1208.5 1331.5 1221.48 1331.5 1237.5 1331.5 1253.52 1318.74 1266.5 1303 1266.5 1287.26 1266.5 1274.5 1253.52 1274.5 1237.5Z" stroke="#000000" stroke-width="3.4375" stroke-linecap="square" stroke-miterlimit="8" fill="none" fill-rule="evenodd"/><text font-family="Times New Roman,Times New Roman_MSFontService,sans-serif" font-weight="400" font-size="46" transform="matrix(1 0 0 1 1289.64 1252)">7</text><text font-family="Times New Roman,Times New Roman_MSFontService,sans-serif" font-weight="400" font-size="55" transform="matrix(1 0 0 1 1600.73 872)">Expansion</text><text font-family="Times New Roman,Times New Roman_MSFontService,sans-serif" font-weight="400" font-size="55" transform="matrix(1 0 0 1 1651.15 939)">Valve</text><text font-family="Times New Roman,Times New Roman_MSFontService,sans-serif" font-weight="400" font-size="55" transform="matrix(1 0 0 1 1342.34 1134)">Evaporator</text><text font-family="Times New Roman,Times New Roman_MSFontService,sans-serif" font-weight="400" font-size="55" transform="matrix(1 0 0 1 2499.06 866)">Condenser</text><text font-family="Times New Roman,Times New Roman_MSFontService,sans-serif" font-weight="400" font-size="55" transform="matrix(1 0 0 1 2079.11 506)">Receiver</text><text font-family="Times New Roman,Times New Roman_MSFontService,sans-serif" font-weight="400" font-size="55" transform="matrix(1 0 0 1 2043.02 918)">IHX</text><text font-family="Times New Roman,Times New Roman_MSFontService,sans-serif" font-weight="400" font-size="55" transform="matrix(1 0 0 1 2217.76 1128)">Compressor</text><text fill="#0070C0" font-family="Times New Roman,Times New Roman_MSFontService,sans-serif" font-weight="400" font-size="55" transform="matrix(1 0 0 1 816.12 851)">An</text><text fill="#0070C0" font-family="Times New Roman,Times New Roman_MSFontService,sans-serif" font-weight="400" font-size="55" transform="matrix(1 0 0 1 883.151 851)">t</text><text fill="#0070C0" font-family="Times New Roman,Times New Roman_MSFontService,sans-serif" font-weight="400" font-size="55" transform="matrix(1 0 0 1 898.62 851)">ifrogen</text><text fill="#0070C0" font-family="Times New Roman,Times New Roman_MSFontService,sans-serif" font-weight="400" font-size="55" transform="matrix(1 0 0 1 1071.64 851)">N (40%)</text><text fill="#FF0000" font-family="Times New Roman,Times New Roman_MSFontService,sans-serif" font-weight="400" font-size="55" transform="matrix(1 0 0 1 2875.47 833)">An</text><text fill="#FF0000" font-family="Times New Roman,Times New Roman_MSFontService,sans-serif" font-weight="400" font-size="55" transform="matrix(1 0 0 1 2942.5 833)">t</text><text fill="#FF0000" font-family="Times New Roman,Times New Roman_MSFontService,sans-serif" font-weight="400" font-size="55" transform="matrix(1 0 0 1 2957.97 833)">ifrogen</text><text fill="#FF0000" font-family="Times New Roman,Times New Roman_MSFontService,sans-serif" font-weight="400" font-size="55" transform="matrix(1 0 0 1 3130.99 833)">N </text><text fill="#FF0000" font-family="Times New Roman,Times New Roman_MSFontService,sans-serif" font-weight="400" font-size="55" transform="matrix(1 0 0 1 3184.27 833)">(</text><text fill="#FF0000" font-family="Times New Roman,Times New Roman_MSFontService,sans-serif" font-weight="400" font-size="55" transform="matrix(1 0 0 1 3202.6 833)">4</text><text fill="#FF0000" font-family="Times New Roman,Times New Roman_MSFontService,sans-serif" font-weight="400" font-size="55" transform="matrix(1 0 0 1 3230.1 833)">0</text><text fill="#FF0000" font-family="Times New Roman,Times New Roman_MSFontService,sans-serif" font-weight="400" font-size="55" transform="matrix(1 0 0 1 3257.6 833)">%)</text><text fill="#00B050" font-family="Times New Roman,Times New Roman_MSFontService,sans-serif" font-weight="400" font-size="55" transform="matrix(1 0 0 1 2528.85 641)">R134a</text><path d="M1008.5 928.5 1343.5 929.5" stroke="#0070C0" stroke-width="4.58333" stroke-linecap="round" stroke-linejoin="round" stroke-miterlimit="10" fill="none" fill-rule="evenodd"/><path d="M923 1017.75 979.5 1017.75 979.5 1006 1003 1029.5 979.5 1053 979.5 1041.25 923 1041.25Z" fill="#4472C4" fill-rule="evenodd"/><path d="M1004 938.25 947.5 938.25 947.5 950 924 926.5 947.5 903 947.5 914.75 1004 914.75Z" fill="#4472C4" fill-rule="evenodd"/><path d="M3146 944.25 3088.5 944.25 3088.5 956 3065 932.5 3088.5 909 3088.5 920.75 3146 920.75Z" fill="#FF0000" fill-rule="evenodd"/><path d="M3065 1024.75 3122.5 1024.75 3122.5 1013 3146 1036.5 3122.5 1060 3122.5 1048.25 3065 1048.25Z" fill="#FF0000" fill-rule="evenodd"/></g></svg>